# xmcd CD database file
#
# Track frame offsets:
#	150
#	18472
#	37120
#	54711
#	65934
#	85255
#	105710
#	140778
#	169513
#	196202
#	215619
#	230963
#	249212
#	262786
#	297228
#
# Disc length: 4270 seconds
#
# Revision: 1
# Processed by: cddbd v1.5.2PL0 Copyright (c) Steve Scherf et al.
# Submitted via: CDex 1.81
#
DISCID=e410ac0f
DTITLE=Various Artist - Best Jazz 100 Premium Disc6 - Jazz Ballad
DYEAR=2008
DGENRE=Jazz
TTITLE0=It Never Entered My Mind - Miles Davis
TTITLE1=What A Difference A Day Makes - Ike Quebec
TTITLE2=Body and Soul - Sonny Stitt
TTITLE3=Stardust - Duke Ellington
TTITLE4=I Left My Heart In San Francisco - Booker Ervin
TTITLE5=Come Rain Or Come Shine - Carmell Jones
TTITLE6=Someone to Watch Over Me - Stanley Turrentine
TTITLE7=I Fall In Love Too Easily - Ron Carter
TTITLE8=I Remember Clifford - Milt Jackson
TTITLE9=You Go To My Head - Art Pepper
TTITLE10=It Could Happen To You - George Shearing
TTITLE11=April In Paris - Art Farmer
TTITLE12=These Foolish Things - Stan Getz
TTITLE13=I've Got A Crush On You - Thad Jones
TTITLE14=The Good Life - Hank Mobley
EXTD=YEAR: 2008
EXTT0=
EXTT1=
EXTT2=
EXTT3=
EXTT4=
EXTT5=
EXTT6=
EXTT7=
EXTT8=
EXTT9=
EXTT10=
EXTT11=
EXTT12=
EXTT13=
EXTT14=
PLAYORDER=
